<svg width="16" height="16" viewBox="0 0 16 16" fill="none" xmlns="http://www.w3.org/2000/svg">
<g clip-path="url(#clip0)">
<path d="M7.99613 15.9999C9.09424 15.9999 10.1253 15.791 11.0894 15.3732C12.0535 14.9554 12.9028 14.3803 13.6375 13.6479C14.3721 12.9155 14.9496 12.0644 15.3697 11.0947C15.7899 10.125 16 9.09341 16 7.99992C16 6.90643 15.7899 5.87742 15.3697 4.91288C14.9496 3.94834 14.3721 3.09728 13.6375 2.35969C12.9028 1.6221 12.0522 1.04441 11.0855 0.626613C10.1189 0.208819 9.08651 -7.62939e-05 7.9884 -7.62939e-05C6.89544 -7.62939e-05 5.86692 0.208819 4.90285 0.626613C3.93877 1.04441 3.08941 1.6221 2.35476 2.35969C1.62011 3.09728 1.04398 3.94834 0.626388 4.91288C0.208796 5.87742 0 6.90643 0 7.99992C0 9.09341 0.208796 10.125 0.626388 11.0947C1.04398 12.0644 1.62139 12.9155 2.35862 13.6479C3.09586 14.3803 3.94651 14.9554 4.91058 15.3732C5.87465 15.791 6.90317 15.9999 7.99613 15.9999ZM7.99613 14.4061C7.10939 14.4061 6.27936 14.2411 5.50604 13.9109C4.73272 13.5808 4.05348 13.1231 3.46834 12.5376C2.88319 11.9522 2.42693 11.2714 2.09956 10.4951C1.77219 9.71881 1.60851 8.88709 1.60851 7.99992C1.60851 7.11791 1.77219 6.28876 2.09956 5.51249C2.42694 4.73622 2.88191 4.05536 3.46447 3.46993C4.04704 2.8845 4.72498 2.42674 5.4983 2.09663C6.27163 1.76652 7.10166 1.60146 7.9884 1.60146C8.88029 1.60146 9.71161 1.76652 10.4824 2.09663C11.2531 2.42674 11.9323 2.8845 12.52 3.46993C13.1078 4.05536 13.5679 4.73622 13.9004 5.51249C14.233 6.28876 14.3992 7.11791 14.3992 7.99992C14.3992 8.88709 14.2342 9.71881 13.9043 10.4951C13.5743 11.2714 13.1168 11.9522 12.5316 12.5376C11.9465 13.1231 11.266 13.5808 10.4901 13.9109C9.71418 14.2411 8.88286 14.4061 7.99612 14.4061H7.99613ZM7.98839 11.6672C8.21008 11.6672 8.38794 11.595 8.52198 11.4506C8.65603 11.3062 8.72305 11.1127 8.72305 10.8703V8.73493H10.9889C11.2209 8.73493 11.4103 8.67174 11.5573 8.54537C11.7042 8.419 11.7777 8.24234 11.7777 8.01539C11.7777 7.78844 11.7055 7.6092 11.5611 7.47768C11.4168 7.34615 11.226 7.28038 10.9889 7.28038H8.72305V5.02893C8.72305 4.78651 8.65603 4.59308 8.52199 4.44866C8.38794 4.30424 8.21008 4.23203 7.9884 4.23203C7.76155 4.23203 7.58369 4.30553 7.45481 4.45253C7.32592 4.59953 7.26148 4.79167 7.26148 5.02894V7.28039H5.00338C4.76107 7.28039 4.56774 7.34615 4.42339 7.47768C4.27904 7.60921 4.20686 7.78844 4.20686 8.01539C4.20686 8.24234 4.28161 8.419 4.43112 8.54537C4.58063 8.67174 4.77138 8.73493 5.00338 8.73493H7.26147V10.8703C7.26147 11.1024 7.32592 11.2933 7.4548 11.4429C7.58369 11.5924 7.76155 11.6672 7.98839 11.6672H7.98839Z" fill="#9181F3"/>
</g>
<defs>
<clipPath id="clip0">
<rect width="16" height="16" fill="white"/>
</clipPath>
</defs>
</svg>
