<svg width="20" height="20" viewBox="0 0 20 20" fill="none" xmlns="http://www.w3.org/2000/svg">
<g clip-path="url(#clip0)">
<path fill-rule="evenodd" clip-rule="evenodd" d="M15.6571 15.6569C17.1574 14.1566 18.0002 12.1217 18.0002 10C18.0002 7.87827 17.1574 5.84344 15.6571 4.34315C14.1568 2.84285 12.122 2 10.0002 2C7.8785 2 5.84367 2.84285 4.34338 4.34315C2.84309 5.84344 2.00023 7.87827 2.00023 10C2.00023 12.1217 2.84309 14.1566 4.34338 15.6569C5.84367 17.1571 7.8785 18 10.0002 18C12.122 18 14.1568 17.1571 15.6571 15.6569ZM12.1216 6.87883H7.87891C7.61674 6.88339 7.36686 6.99073 7.18307 7.17774C6.99928 7.36476 6.89629 7.61647 6.89629 7.87868C6.89629 8.14089 6.99928 8.3926 7.18307 8.57962C7.36686 8.76663 7.61674 8.87397 7.87891 8.87853H9.70749L7.1718 11.4142C6.98427 11.6017 6.87891 11.8561 6.87891 12.1213C6.87891 12.3865 6.98427 12.6409 7.1718 12.8284C7.35934 13.016 7.6137 13.1213 7.87891 13.1213C8.14413 13.1213 8.39848 13.016 8.58602 12.8284L11.1217 10.2927V12.1213C11.1194 12.2541 11.1436 12.386 11.1928 12.5093C11.242 12.6326 11.3153 12.7449 11.4083 12.8396C11.5014 12.9343 11.6124 13.0096 11.7349 13.0609C11.8573 13.1123 11.9888 13.1387 12.1216 13.1387C12.2543 13.1387 12.3858 13.1123 12.5082 13.0609C12.6307 13.0096 12.7417 12.9343 12.8348 12.8396C12.9278 12.7449 13.0011 12.6326 13.0503 12.5093C13.0996 12.386 13.1237 12.2541 13.1214 12.1213V7.87868C13.1214 7.61352 13.016 7.35922 12.8285 7.17172C12.641 6.98422 12.3867 6.87887 12.1216 6.87883Z" fill="#63B361"/>
</g>
<defs>
<clipPath id="clip0">
<rect width="20" height="20" fill="white" transform="translate(20) rotate(90)"/>
</clipPath>
</defs>
</svg>
