<svg width="20" height="20" viewBox="0 0 20 20" fill="none" xmlns="http://www.w3.org/2000/svg">
<g clip-path="url(#clip0)">
<path fill-rule="evenodd" clip-rule="evenodd" d="M4.34291 4.34315C2.84262 5.84344 1.99977 7.87827 1.99977 10C1.99977 12.1217 2.84262 14.1566 4.34291 15.6569C5.84321 17.1571 7.87804 18 9.99977 18C12.1215 18 14.1563 17.1571 15.6566 15.6569C17.1569 14.1566 17.9998 12.1217 17.9998 10C17.9998 7.87827 17.1569 5.84344 15.6566 4.34315C14.1563 2.84286 12.1215 2 9.99977 2C7.87804 2 5.8432 2.84286 4.34291 4.34315ZM7.87845 13.1212L12.1211 13.1212C12.3833 13.1166 12.6331 13.0093 12.8169 12.8223C13.0007 12.6352 13.1037 12.3835 13.1037 12.1213C13.1037 11.8591 13.0007 11.6074 12.8169 11.4204C12.6331 11.2334 12.3833 11.126 12.1211 11.1215L10.2925 11.1215L12.8282 8.58579C13.0157 8.39825 13.1211 8.1439 13.1211 7.87868C13.1211 7.61346 13.0157 7.35911 12.8282 7.17157C12.6407 6.98404 12.3863 6.87868 12.1211 6.87868C11.8559 6.87868 11.6015 6.98404 11.414 7.17157L8.8783 9.70726L8.8783 7.87868C8.8806 7.74592 8.85645 7.61402 8.80724 7.49069C8.75803 7.36736 8.68475 7.25507 8.59167 7.16037C8.4986 7.06566 8.3876 6.99044 8.26514 6.93909C8.14269 6.88775 8.01123 6.8613 7.87845 6.8613C7.74566 6.8613 7.61421 6.88775 7.49175 6.93909C7.3693 6.99044 7.2583 7.06566 7.16522 7.16037C7.07215 7.25507 6.99887 7.36736 6.94966 7.49069C6.90045 7.61402 6.87629 7.74592 6.8786 7.87868L6.8786 12.1213C6.87864 12.3865 6.98399 12.6408 7.17149 12.8283C7.35899 13.0158 7.61328 13.1211 7.87845 13.1212Z" fill="#9E9EA7"/>
</g>
<defs>
<clipPath id="clip0">
<rect width="20" height="20" fill="white" transform="translate(0 20) rotate(-90)"/>
</clipPath>
</defs>
</svg>
