<svg width="212" height="206" viewBox="0 0 212 206" fill="none" xmlns="http://www.w3.org/2000/svg">
<path d="M204.935 155.441C207.531 155.441 209.645 157.554 209.645 160.15C209.645 162.747 207.531 164.86 204.935 164.86C202.338 164.86 200.224 162.747 200.224 160.15C200.224 157.524 202.338 155.441 204.935 155.441Z" fill="black"/>
<path d="M200.224 178.988C205.418 178.988 209.645 183.215 209.645 188.407C209.645 193.6 205.418 197.826 200.224 197.826C195.031 197.826 190.803 193.6 190.803 188.407C190.803 183.184 195 178.988 200.224 178.988Z" fill="#D7DEED"/>
<path d="M195.514 28.2566V47.0942H167.251V28.2566C167.251 20.4377 173.592 14.1283 181.382 14.1283C185.277 14.1283 188.81 15.6981 191.377 18.2641C193.913 20.8302 195.514 24.3622 195.514 28.2566Z" fill="#BEC3C7"/>
<path d="M167.251 160.15V179.109C167.04 194.233 156.411 202.354 144.907 203.26H139.925C128.39 202.113 117.761 194.173 117.761 178.988H36.627H35.3286V103.607V33.449C35.3286 22.7924 43.9644 14.1283 54.6535 14.1283H162.541H167.251H181.382C173.562 14.1283 167.251 20.4679 167.251 28.2566V47.0942V160.15ZM101.275 141.313C101.275 138.717 99.1611 136.603 96.5643 136.603C93.9676 136.603 91.8539 138.717 91.8539 141.313C91.8539 143.909 93.9676 146.022 96.5643 146.022C99.1611 145.992 101.275 143.909 101.275 141.313Z" fill="white"/>
<path d="M139.924 203.26H36.6566C24.2464 203.26 13.8291 194.867 13.8291 178.988H35.3582H36.6566H117.761C117.761 194.173 128.389 202.113 139.924 203.26Z" fill="#BEC3C7"/>
<path d="M96.564 136.573C99.1607 136.573 101.274 138.686 101.274 141.283C101.274 143.879 99.1607 145.992 96.564 145.992C93.9672 145.992 91.8535 143.879 91.8535 141.283C91.8535 138.686 93.9672 136.573 96.564 136.573Z" fill="black"/>
<path d="M30.6177 0C33.2145 0 35.3281 2.1132 35.3281 4.70942C35.3281 7.30564 33.2145 9.41884 30.6177 9.41884C28.0209 9.41884 25.9072 7.30564 25.9072 4.70942C25.9072 2.1132 28.0209 0 30.6177 0Z" fill="black"/>
<path d="M16.4868 127.154C19.0836 127.154 21.1972 129.268 21.1972 131.864C21.1972 134.46 19.0836 136.573 16.4868 136.573C13.89 136.573 11.7764 134.46 11.7764 131.864C11.7764 129.268 13.89 127.154 16.4868 127.154Z" fill="black"/>
<path d="M11.7764 28.2565C16.9699 28.2565 21.1972 32.4829 21.1972 37.6753C21.1972 42.8677 16.9699 47.0942 11.7764 47.0942C6.58279 47.0942 2.35547 42.8677 2.35547 37.6753C2.35547 32.4829 6.58279 28.2565 11.7764 28.2565Z" fill="#D7DEED"/>
<path d="M144.876 205.614H139.894C138.596 205.614 137.539 204.558 137.539 203.26C137.539 201.962 138.596 200.905 139.894 200.905H144.786C153.935 200.15 164.654 193.992 164.896 179.079V47.0942C164.896 45.7961 165.953 44.7395 167.251 44.7395C168.549 44.7395 169.606 45.7961 169.606 47.0942V179.109C169.365 196.105 157.106 204.648 145.088 205.584C144.997 205.614 144.937 205.614 144.876 205.614Z" fill="black"/>
<path d="M139.924 205.614H36.6569C24.1259 205.614 11.4741 197.373 11.4741 178.988C11.4741 177.69 12.531 176.633 13.8293 176.633H117.761C119.059 176.633 120.116 177.69 120.116 178.988C120.116 193.72 130.896 199.999 140.136 200.905C141.374 201.026 142.31 202.113 142.249 203.381C142.189 204.618 141.162 205.614 139.924 205.614ZM16.245 181.343C17.1508 193.298 24.9412 200.905 36.6267 200.905H126.306C125.068 200.06 123.891 199.124 122.834 198.067C118.455 193.781 115.949 188.015 115.466 181.343H16.245Z" fill="black"/>
<path d="M35.3284 181.343C34.03 181.343 32.9731 180.286 32.9731 178.988V33.449C32.9731 21.4943 42.696 11.7736 54.6533 11.7736H181.382C182.681 11.7736 183.737 12.8302 183.737 14.1283C183.737 15.4264 182.681 16.483 181.382 16.483H54.6533C45.2928 16.483 37.6836 24.0905 37.6836 33.449V178.988C37.6836 180.286 36.6268 181.343 35.3284 181.343Z" fill="black"/>
<path d="M195.513 49.4489H167.251C165.952 49.4489 164.896 48.3923 164.896 47.0942V28.2565C164.896 19.1698 172.293 11.7736 181.382 11.7736C185.791 11.7736 189.927 13.4943 193.037 16.6037C196.147 19.7132 197.869 23.849 197.869 28.2565V47.0942C197.869 48.3923 196.812 49.4489 195.513 49.4489ZM169.606 44.7395H193.158V28.2565C193.158 25.1169 191.92 22.1584 189.716 19.9245C187.481 17.6905 184.522 16.483 181.382 16.483C174.89 16.483 169.606 21.766 169.606 28.2565V44.7395Z" fill="black"/>
<path d="M91.8537 63.5772H58.8806C57.5822 63.5772 56.5254 62.5206 56.5254 61.2225C56.5254 59.9244 57.5822 58.8678 58.8806 58.8678H91.8537C93.1521 58.8678 94.2089 59.9244 94.2089 61.2225C94.2089 62.5206 93.1521 63.5772 91.8537 63.5772Z" fill="black"/>
<path d="M129.537 87.1242H58.8806C57.5822 87.1242 56.5254 86.0676 56.5254 84.7695C56.5254 83.4714 57.5822 82.4148 58.8806 82.4148H129.537C130.836 82.4148 131.892 83.4714 131.892 84.7695C131.923 86.0676 130.866 87.1242 129.537 87.1242Z" fill="black"/>
<path d="M129.537 101.253H58.8806C57.5822 101.253 56.5254 100.196 56.5254 98.8979C56.5254 97.5998 57.5822 96.5432 58.8806 96.5432H129.537C130.836 96.5432 131.892 97.5998 131.892 98.8979C131.923 100.196 130.866 101.253 129.537 101.253Z" fill="black"/>
<path d="M129.537 115.381H58.8806C57.5822 115.381 56.5254 114.324 56.5254 113.026C56.5254 111.728 57.5822 110.671 58.8806 110.671H129.537C130.836 110.671 131.892 111.728 131.892 113.026C131.923 114.324 130.866 115.381 129.537 115.381Z" fill="black"/>
<path d="M129.537 129.509H58.8806C57.5822 129.509 56.5254 128.453 56.5254 127.154C56.5254 125.856 57.5822 124.8 58.8806 124.8H129.537C130.836 124.8 131.892 125.856 131.892 127.154C131.923 128.453 130.866 129.509 129.537 129.509Z" fill="black"/>
<path d="M82.4328 143.667H58.8806C57.5822 143.667 56.5254 142.611 56.5254 141.313C56.5254 140.015 57.5822 138.958 58.8806 138.958H82.4328C83.7312 138.958 84.788 140.015 84.788 141.313C84.788 142.611 83.7312 143.667 82.4328 143.667Z" fill="black"/>
<path d="M129.537 162.505H110.695C109.397 162.505 108.34 161.449 108.34 160.15C108.34 158.852 109.397 157.796 110.695 157.796H129.537C130.835 157.796 131.892 158.852 131.892 160.15C131.922 161.449 130.865 162.505 129.537 162.505Z" fill="black"/>
<path d="M200.224 200.181C193.732 200.181 188.448 194.898 188.448 188.407C188.448 181.916 193.732 176.633 200.224 176.633C206.716 176.633 212 181.916 212 188.407C212 194.898 206.716 200.181 200.224 200.181ZM200.224 181.343C196.329 181.343 193.158 184.513 193.158 188.407C193.158 192.301 196.329 195.471 200.224 195.471C204.119 195.471 207.29 192.301 207.29 188.407C207.29 184.513 204.119 181.343 200.224 181.343Z" fill="black"/>
<path d="M11.7761 49.449C5.28415 49.449 0 44.1659 0 37.6754C0 31.1849 5.28415 25.9019 11.7761 25.9019C18.2681 25.9019 23.5522 31.1849 23.5522 37.6754C23.5522 44.1659 18.2681 49.449 11.7761 49.449ZM11.7761 30.6113C7.88093 30.6113 4.71044 33.7811 4.71044 37.6754C4.71044 41.5697 7.88093 44.7395 11.7761 44.7395C15.6713 44.7395 18.8418 41.5697 18.8418 37.6754C18.8418 33.7811 15.6713 30.6113 11.7761 30.6113Z" fill="black"/>
<path d="M167.854 73.479C167.643 73.479 167.432 73.479 167.22 73.479C154.508 73.8111 144.302 84.2261 144.302 97.0261C144.302 107.773 151.519 116.769 161.212 119.637C176.158 124.075 191.407 112.815 191.407 97.0261C191.437 84.0148 180.869 73.479 167.854 73.479Z" fill="#FCD884"/>
<path d="M158.434 118.611V144.12L167.22 135.335L167.854 134.701L177.275 144.12V118.611C171.599 121.147 164.442 121.298 158.434 118.611Z" fill="#EF727A"/>
<path d="M177.276 146.475C176.672 146.475 176.068 146.233 175.615 145.781L167.855 138.022L160.095 145.781C159.43 146.445 158.404 146.656 157.528 146.294C156.652 145.932 156.079 145.056 156.079 144.12V118.611C156.079 116.92 157.83 115.773 159.4 116.468C160.306 116.86 161.846 117.403 162.842 117.615C164.111 117.917 164.896 119.154 164.624 120.422C164.322 121.69 163.054 122.475 161.786 122.203C161.484 122.143 161.031 122.022 160.789 121.962V138.445L166.194 133.041C167.1 132.135 168.61 132.135 169.515 133.041L174.92 138.445V121.962C174.769 122.022 174.226 122.143 174.015 122.203C172.746 122.505 171.478 121.72 171.176 120.483C170.874 119.215 171.659 117.947 172.897 117.645C173.894 117.403 175.313 116.951 176.309 116.498C177.88 115.803 179.631 116.951 179.631 118.641V144.15C179.631 145.116 179.057 145.962 178.181 146.324C177.91 146.415 177.578 146.475 177.276 146.475Z" fill="black"/>
<path d="M141.947 97.0262C141.947 90.2337 144.574 83.8036 149.315 78.9432C154.056 74.0828 160.396 71.3055 167.19 71.1545C167.432 71.1545 167.643 71.1545 167.885 71.1545C182.167 71.1545 193.792 82.7772 193.792 97.0564C193.792 110.853 183.013 121.962 169.908 122.868C155.384 124.075 141.947 112.543 141.947 97.0262ZM167.855 75.8338C167.674 75.8338 167.462 75.8338 167.281 75.8338C155.716 76.1357 146.658 85.4337 146.658 97.0262C146.658 108.709 156.079 117.947 167.281 118.219C179.51 118.52 189.052 108.679 189.052 97.0262C189.052 85.3432 179.57 75.8338 167.855 75.8338Z" fill="black"/>
</svg>
