<svg width="229" height="238" viewBox="0 0 229 238" fill="none" xmlns="http://www.w3.org/2000/svg">
<path d="M214.866 161.312C221.136 161.312 226.173 166.392 226.173 172.632C226.173 178.873 221.136 183.953 214.866 183.953C208.633 183.953 203.56 178.873 203.56 172.632C203.56 166.392 208.597 161.312 214.866 161.312Z" fill="#414A56"/>
<path d="M176.706 108.884V155.289L113.068 193.495V148.287L176.706 108.884Z" fill="#414A56"/>
<path d="M113.069 148.287V193.495L49.4675 155.289V108.884L113.069 148.287Z" fill="#414A56"/>
<path d="M214.866 85.2278L176.706 108.884L113.069 148.287L49.4675 108.884L11.3069 85.2278L113.069 22.1687L214.866 85.2278Z" fill="#57606F"/>
<path d="M180.946 2.83008C187.179 2.83008 192.253 7.90964 192.253 14.1502C192.253 20.3908 187.179 25.4704 180.946 25.4704C174.713 25.4704 169.639 20.3908 169.639 14.1502C169.603 7.90964 174.676 2.83008 180.946 2.83008Z" fill="#D7DEED"/>
<path d="M200.733 206.629C208.525 206.629 214.867 212.978 214.867 220.779C214.867 228.58 208.525 234.929 200.733 234.929C192.941 234.929 186.6 228.58 186.6 220.779C186.563 212.942 192.905 206.629 200.733 206.629Z" fill="#D7DEED"/>
<path d="M16.9604 195.309C23.1937 195.309 28.2673 200.389 28.2673 206.629C28.2673 212.87 23.1937 217.949 16.9604 217.949C10.7272 217.949 5.65356 212.87 5.65356 206.629C5.65356 200.352 10.7272 195.309 16.9604 195.309Z" fill="#D7DEED"/>
<path d="M220.52 36.7905C223.637 36.7905 226.173 39.3303 226.173 42.4506C226.173 45.5709 223.637 48.1107 220.52 48.1107C217.403 48.1107 214.866 45.5709 214.866 42.4506C214.866 39.3303 217.367 36.7905 220.52 36.7905Z" fill="black"/>
<path d="M169.603 206.629C172.72 206.629 175.256 209.169 175.256 212.289C175.256 215.409 172.72 217.949 169.603 217.949C166.486 217.949 163.949 215.409 163.949 212.289C163.986 209.169 166.486 206.629 169.603 206.629Z" fill="black"/>
<path d="M56.5343 8.49011C59.6509 8.49011 62.1877 11.0299 62.1877 14.1502C62.1877 17.2705 59.6509 19.8103 56.5343 19.8103C53.4177 19.8103 50.8809 17.2705 50.8809 14.1502C50.8809 11.0299 53.4177 8.49011 56.5343 8.49011Z" fill="black"/>
<path d="M22.6139 150.028C25.7305 150.028 28.2673 152.568 28.2673 155.688C28.2673 158.809 25.7305 161.348 22.6139 161.348C19.4972 161.348 16.9604 158.809 16.9604 155.688C16.9604 152.568 19.4972 150.028 22.6139 150.028Z" fill="black"/>
<path d="M5.65343 42.4506C8.77006 42.4506 11.3069 44.9903 11.3069 48.1106C11.3069 51.2309 8.77006 53.7707 5.65343 53.7707C2.53679 53.7707 0 51.2309 0 48.1106C0 44.9903 2.53679 42.4506 5.65343 42.4506Z" fill="black"/>
<path d="M113.069 196.325C112.561 196.325 112.09 196.18 111.619 195.926L48.018 157.72C47.1845 157.212 46.6409 156.305 46.6409 155.289V108.884C46.6409 107.324 47.9093 106.054 49.4676 106.054C51.0259 106.054 52.2943 107.324 52.2943 108.884V153.693L114.518 191.064C115.859 191.862 116.294 193.604 115.497 194.946C114.989 195.817 114.047 196.325 113.069 196.325Z" fill="black"/>
<path d="M113.068 196.325C112.597 196.325 112.126 196.216 111.691 195.962C110.822 195.454 110.242 194.511 110.242 193.495V148.287C110.242 146.727 111.51 145.457 113.068 145.457C114.627 145.457 115.895 146.727 115.895 148.287V188.488L173.843 153.657V108.884C173.843 107.324 175.111 106.054 176.669 106.054C178.228 106.054 179.496 107.324 179.496 108.884V155.289C179.496 156.305 178.989 157.212 178.119 157.72L114.518 195.926C114.083 196.18 113.576 196.325 113.068 196.325Z" fill="black"/>
<path d="M214.866 164.179C213.308 164.179 212.04 162.909 212.04 161.349V88.0578H113.068C111.51 88.0578 110.242 86.7879 110.242 85.2277C110.242 83.6676 111.51 82.3977 113.068 82.3977H214.83C216.388 82.3977 217.657 83.6676 217.657 85.2277V161.312C217.693 162.909 216.425 164.179 214.866 164.179Z" fill="black"/>
<path d="M214.866 186.819C207.075 186.819 200.733 180.469 200.733 172.669C200.733 164.868 207.075 158.518 214.866 158.518C222.658 158.518 229 164.868 229 172.669C229 180.469 222.658 186.819 214.866 186.819ZM214.866 164.179C210.191 164.179 206.386 167.988 206.386 172.669C206.386 177.349 210.191 181.159 214.866 181.159C219.541 181.159 223.346 177.349 223.346 172.669C223.346 167.952 219.541 164.179 214.866 164.179Z" fill="black"/>
<path d="M16.9602 220.779C9.16864 220.779 2.82666 214.43 2.82666 206.629C2.82666 198.828 9.16864 192.479 16.9602 192.479C24.7518 192.479 31.0938 198.828 31.0938 206.629C31.0938 214.43 24.7518 220.779 16.9602 220.779ZM16.9602 198.139C12.2853 198.139 8.48009 201.949 8.48009 206.629C8.48009 211.31 12.2853 215.119 16.9602 215.119C21.6352 215.119 25.4404 211.31 25.4404 206.629C25.4404 201.949 21.6352 198.139 16.9602 198.139Z" fill="black"/>
<path d="M180.946 28.3004C173.154 28.3004 166.812 21.9509 166.812 14.1502C166.812 6.34945 173.154 0 180.946 0C188.737 0 195.079 6.34945 195.079 14.1502C195.079 21.9509 188.737 28.3004 180.946 28.3004ZM180.946 5.66008C176.271 5.66008 172.466 9.46975 172.466 14.1502C172.466 18.8306 176.271 22.6403 180.946 22.6403C185.621 22.6403 189.426 18.8306 189.426 14.1502C189.426 9.46975 185.621 5.66008 180.946 5.66008Z" fill="black"/>
<path d="M200.733 237.76C191.383 237.76 183.773 230.14 183.773 220.779C183.773 211.419 191.383 203.799 200.733 203.799C210.083 203.799 217.693 211.419 217.693 220.779C217.693 230.14 210.083 237.76 200.733 237.76ZM200.733 209.459C194.5 209.459 189.426 214.539 189.426 220.779C189.426 227.02 194.5 232.1 200.733 232.1C206.966 232.1 212.04 227.02 212.04 220.779C212.04 214.539 206.966 209.459 200.733 209.459Z" fill="black"/>
<path d="M113.068 151.117C112.561 151.117 112.054 150.972 111.583 150.681L47.9815 111.279L9.82086 87.6224C8.98734 87.1144 8.47998 86.2074 8.47998 85.2277C8.47998 84.2481 8.98734 83.341 9.82086 82.8331L111.583 19.774C112.489 19.1935 113.648 19.1935 114.554 19.774L216.352 82.8331C217.186 83.341 217.693 84.2481 217.693 85.2277C217.693 86.2074 217.186 87.1144 216.352 87.6224L178.191 111.279L114.554 150.681C114.119 150.972 113.612 151.117 113.068 151.117ZM16.6702 85.2277L113.068 144.949L209.467 85.2277L113.068 25.5067L16.6702 85.2277Z" fill="black"/>
</svg>
