<svg width="20" height="20" viewBox="0 0 20 20" fill="none" xmlns="http://www.w3.org/2000/svg">
<path d="M8.33464 15C9.55698 15 10.7009 14.6659 11.6854 14.0884C12.1204 13.8332 12.6831 13.8609 13.0397 14.2175L15.4896 16.6675C15.815 16.9928 16.3426 16.9928 16.668 16.6675C16.9934 16.3421 16.9934 15.8145 16.668 15.4891L14.2181 13.0392C13.8614 12.6826 13.8338 12.1198 14.089 11.6849C14.6671 10.6999 15.0013 9.55581 15.0013 8.33329C15.0013 4.65746 12.0105 1.66663 8.33464 1.66663C4.6588 1.66663 1.66797 4.65746 1.66797 8.33329C1.66797 12.0091 4.6588 15 8.33464 15ZM8.33464 3.33329C11.0921 3.33329 13.3346 5.57579 13.3346 8.33329C13.3346 11.0908 11.0921 13.3333 8.33464 13.3333C5.57714 13.3333 3.33464 11.0908 3.33464 8.33329C3.33464 5.57579 5.57714 3.33329 8.33464 3.33329Z" fill="#9E9EA7"/>
</svg>
