<svg width="40" height="40" viewBox="0 0 40 40" fill="none" xmlns="http://www.w3.org/2000/svg">
<path d="M20 15C17.29 15 15 17.29 15 20C15 22.71 17.29 25 20 25C22.71 25 25 22.71 25 20C25 17.29 22.71 15 20 15Z" fill="#9E9EA7"/>
<path d="M33.332 8.33316H29.022L24.5104 3.82149C24.1987 3.50816 23.7754 3.33316 23.332 3.33316H16.6654C16.222 3.33316 15.7987 3.50816 15.487 3.82149L10.9754 8.33316H6.66536C4.82703 8.33316 3.33203 9.82816 3.33203 11.6665V29.9998C3.33203 31.8382 4.82703 33.3332 6.66536 33.3332H33.332C35.1704 33.3332 36.6654 31.8382 36.6654 29.9998V11.6665C36.6654 9.82816 35.1704 8.33316 33.332 8.33316ZM19.9987 28.3332C15.482 28.3332 11.6654 24.5165 11.6654 19.9998C11.6654 15.4832 15.482 11.6665 19.9987 11.6665C24.5154 11.6665 28.332 15.4832 28.332 19.9998C28.332 24.5165 24.5154 28.3332 19.9987 28.3332Z" fill="#9E9EA7"/>
</svg>
