<svg width="20" height="20" viewBox="0 0 20 20" fill="none" xmlns="http://www.w3.org/2000/svg">
<path d="M5.83337 9.1667H7.50004V10.8334H5.83337V9.1667ZM5.83337 12.5H7.50004V14.1667H5.83337V12.5ZM9.16671 9.1667H10.8334V10.8334H9.16671V9.1667ZM9.16671 12.5H10.8334V14.1667H9.16671V12.5ZM12.5 9.1667H14.1667V10.8334H12.5V9.1667ZM12.5 12.5H14.1667V14.1667H12.5V12.5Z" fill="#9E9EA7"/>
<path d="M4.16667 18.3334H15.8333C16.7525 18.3334 17.5 17.5859 17.5 16.6667V6.6667V5.00003C17.5 4.08086 16.7525 3.33336 15.8333 3.33336H14.1667V1.6667H12.5V3.33336H7.5V1.6667H5.83333V3.33336H4.16667C3.2475 3.33336 2.5 4.08086 2.5 5.00003V6.6667V16.6667C2.5 17.5859 3.2475 18.3334 4.16667 18.3334ZM15.8333 6.6667L15.8342 16.6667H4.16667V6.6667H15.8333Z" fill="#9E9EA7"/>
</svg>
