<svg width="21" height="20" viewBox="0 0 21 20" fill="none" xmlns="http://www.w3.org/2000/svg">
<circle cx="10.5" cy="10" r="10" fill="#A94E3F"/>
<path d="M14.6938 7.00629C14.6357 6.9477 14.5666 6.90121 14.4904 6.86948C14.4142 6.83775 14.3325 6.82141 14.25 6.82141C14.1675 6.82141 14.0858 6.83775 14.0097 6.86948C13.9335 6.90121 13.8644 6.9477 13.8063 7.00629L9.15003 11.6688L7.19378 9.70628C7.13345 9.64801 7.06224 9.60219 6.98421 9.57144C6.90617 9.54068 6.82284 9.5256 6.73898 9.52705C6.65512 9.5285 6.57236 9.54646 6.49544 9.57989C6.41851 9.61333 6.34893 9.66158 6.29065 9.72191C6.23238 9.78224 6.18656 9.85345 6.15581 9.93148C6.12505 10.0095 6.10997 10.0928 6.11142 10.1767C6.11287 10.2606 6.13083 10.3433 6.16426 10.4203C6.1977 10.4972 6.24595 10.5668 6.30628 10.625L8.70628 13.025C8.76438 13.0836 8.83351 13.1301 8.90967 13.1618C8.98583 13.1936 9.06752 13.2099 9.15003 13.2099C9.23254 13.2099 9.31423 13.1936 9.39039 13.1618C9.46655 13.1301 9.53568 13.0836 9.59378 13.025L14.6938 7.92504C14.7572 7.86651 14.8078 7.79548 14.8425 7.71641C14.8771 7.63735 14.895 7.55197 14.895 7.46566C14.895 7.37935 14.8771 7.29397 14.8425 7.21491C14.8078 7.13584 14.7572 7.06481 14.6938 7.00629Z" fill="white"/>
</svg>
