<svg width="20" height="20" viewBox="0 0 20 20" fill="none" xmlns="http://www.w3.org/2000/svg">
<circle cx="10" cy="10" r="10" fill="#506CE9"/>
<path d="M14.1938 7.00629C14.1357 6.9477 14.0666 6.90121 13.9904 6.86948C13.9142 6.83775 13.8325 6.82141 13.75 6.82141C13.6675 6.82141 13.5858 6.83775 13.5097 6.86948C13.4335 6.90121 13.3644 6.9477 13.3063 7.00629L8.65003 11.6688L6.69378 9.70628C6.63345 9.64801 6.56224 9.60219 6.48421 9.57144C6.40617 9.54068 6.32284 9.5256 6.23898 9.52705C6.15512 9.5285 6.07236 9.54646 5.99544 9.57989C5.91851 9.61333 5.84893 9.66158 5.79065 9.72191C5.73238 9.78224 5.68656 9.85345 5.65581 9.93148C5.62505 10.0095 5.60997 10.0928 5.61142 10.1767C5.61287 10.2606 5.63083 10.3433 5.66426 10.4203C5.6977 10.4972 5.74595 10.5668 5.80628 10.625L8.20628 13.025C8.26438 13.0836 8.33351 13.1301 8.40967 13.1618C8.48583 13.1936 8.56752 13.2099 8.65003 13.2099C8.73254 13.2099 8.81423 13.1936 8.89039 13.1618C8.96655 13.1301 9.03568 13.0836 9.09378 13.025L14.1938 7.92504C14.2572 7.86651 14.3078 7.79548 14.3425 7.71641C14.3771 7.63735 14.395 7.55197 14.395 7.46566C14.395 7.37935 14.3771 7.29397 14.3425 7.21491C14.3078 7.13584 14.2572 7.06481 14.1938 7.00629Z" fill="white"/>
</svg>
