<svg width="24" height="24" viewBox="0 0 24 24" fill="none" xmlns="http://www.w3.org/2000/svg">
<path fill-rule="evenodd" clip-rule="evenodd" d="M7.69518 13.391C7.05042 13.391 6.52661 12.8672 6.52661 12.2224C6.52661 11.5795 7.05042 11.0557 7.69518 11.0557C8.33995 11.0557 8.86376 11.5795 8.86376 12.2224C8.86376 12.8672 8.33995 13.391 7.69518 13.391ZM12.238 13.391C11.5932 13.391 11.0694 12.8672 11.0694 12.2224C11.0694 11.5795 11.5932 11.0557 12.238 11.0557C12.8828 11.0557 13.4066 11.5795 13.4066 12.2224C13.4066 12.8672 12.8828 13.391 12.238 13.391ZM15.6124 12.2224C15.6124 12.8672 16.1362 13.391 16.781 13.391C17.4257 13.391 17.9495 12.8672 17.9495 12.2224C17.9495 11.5795 17.4257 11.0557 16.781 11.0557C16.1362 11.0557 15.6124 11.5795 15.6124 12.2224Z" fill="#292929"/>
<path fill-rule="evenodd" clip-rule="evenodd" d="M12.02 2C6.21 2 2 6.74612 2 12.015C2 13.6975 2.49 15.4291 3.35 17.0115C3.51 17.2729 3.53 17.6024 3.42 17.9139L2.75 20.1572C2.6 20.698 3.06 21.0976 3.57 20.9374L5.59 20.3375C6.14 20.1572 6.57 20.3866 7.08 20.698C8.54 21.5583 10.36 22 12 22C16.96 22 22 18.1642 22 11.985C22 6.65598 17.7 2 12.02 2Z" stroke="#292929" stroke-width="1.5" stroke-linecap="round" stroke-linejoin="round"/>
</svg>
