<svg width="46" height="46" viewBox="0 0 46 46" fill="none" xmlns="http://www.w3.org/2000/svg">
<path d="M29.4575 23.1697C29.1725 22.8847 28.7085 22.8847 28.4234 23.1697L21.9799 29.6132C21.307 30.2861 20.3756 30.6872 19.4244 30.7104C18.4797 30.7336 17.4721 30.3292 16.7992 29.6563L16.3484 29.2055C15.6988 28.5559 15.3342 27.6013 15.3474 26.5738C15.3574 25.5562 15.7352 24.6016 16.3849 23.952L24.6978 15.639C25.1917 15.1452 25.8612 14.8866 26.5805 14.9032C27.2964 14.9231 27.9726 15.2148 28.4797 15.7219C28.9802 16.2224 29.2587 16.8853 29.262 17.5781C29.262 18.2741 28.9902 18.937 28.493 19.4342L20.7303 27.1969C20.1635 27.7637 19.2122 27.8134 18.7018 27.303C18.251 26.8522 18.1947 25.9407 18.8344 25.301L23.2626 20.8727C23.5477 20.5877 23.5477 20.1236 23.2626 19.8386C22.9776 19.5535 22.5135 19.5535 22.2285 19.8386L17.8002 24.2668C16.6235 25.4435 16.5805 27.177 17.7041 28.3007C18.251 28.8476 18.957 29.1492 19.6928 29.1426C20.4452 29.1393 21.1811 28.8144 21.7644 28.2311L29.5271 20.4684C30.3028 19.6928 30.7303 18.6619 30.7237 17.5681C30.7237 16.4743 30.2928 15.4468 29.5139 14.6679C28.735 13.889 27.7074 13.4581 26.607 13.4514C25.5066 13.4448 24.4757 13.8657 23.6968 14.6447L15.3839 22.9576C14.4326 23.9089 13.8691 25.2811 13.8791 26.6235C13.889 27.999 14.4094 29.2685 15.3441 30.2032L15.7949 30.654C16.7097 31.5688 18.0157 32.0992 19.3746 32.1058C20.0475 32.1091 20.6972 31.9898 21.3137 31.7511C21.9567 31.4992 22.5268 31.128 23.0041 30.6507L29.4542 24.2006C29.7426 23.9188 29.7426 23.4548 29.4575 23.1697Z" fill="#9E9EA7"/>
</svg>
