<svg width="18" height="18" viewBox="0 0 18 18" fill="none" xmlns="http://www.w3.org/2000/svg">
<path d="M8.10002 5.4C8.10002 6.11608 7.81556 6.80284 7.30921 7.30919C6.80287 7.81553 6.11611 8.1 5.40002 8.1C4.68394 8.1 3.99718 7.81553 3.49084 7.30919C2.98449 6.80284 2.70002 6.11608 2.70002 5.4C2.70002 4.68391 2.98449 3.99716 3.49084 3.49081C3.99718 2.98446 4.68394 2.7 5.40002 2.7C6.11611 2.7 6.80287 2.98446 7.30921 3.49081C7.81556 3.99716 8.10002 4.68391 8.10002 5.4ZM15.3 5.4C15.3 5.75457 15.2302 6.10566 15.0945 6.43324C14.9588 6.76082 14.7599 7.05847 14.5092 7.30919C14.2585 7.5599 13.9608 7.75878 13.6333 7.89447C13.3057 8.03016 12.9546 8.1 12.6 8.1C12.2455 8.1 11.8944 8.03016 11.5668 7.89447C11.2392 7.75878 10.9416 7.5599 10.6908 7.30919C10.4401 7.05847 10.2412 6.76082 10.1055 6.43324C9.96986 6.10566 9.90002 5.75457 9.90002 5.4C9.90002 4.68391 10.1845 3.99716 10.6908 3.49081C11.1972 2.98446 11.8839 2.7 12.6 2.7C13.3161 2.7 14.0029 2.98446 14.5092 3.49081C15.0156 3.99716 15.3 4.68391 15.3 5.4ZM11.637 15.3C11.6784 15.0057 11.7 14.706 11.7 14.4C11.7021 12.986 11.2264 11.6127 10.35 10.503C11.0341 10.108 11.8101 9.90012 12.6 9.90011C13.3899 9.90011 14.1659 10.108 14.85 10.503C15.5341 10.8979 16.1021 11.466 16.4971 12.15C16.8921 12.8341 17.1 13.6101 17.1 14.4V15.3H11.637ZM5.40002 9.9C6.5935 9.9 7.73809 10.3741 8.58201 11.218C9.42592 12.0619 9.90002 13.2065 9.90002 14.4V15.3H0.900024V14.4C0.900024 13.2065 1.37413 12.0619 2.21804 11.218C3.06196 10.3741 4.20655 9.9 5.40002 9.9Z" fill="#A2A2AA"/>
</svg>
