<svg width="24" height="24" viewBox="0 0 24 24" fill="none" xmlns="http://www.w3.org/2000/svg">
<path d="M19.9822 11.8219C19.9146 11.4818 19.6595 11.2109 19.3262 11.1281L13.2282 9.58369L15.4834 4.25487C15.6452 3.87418 15.5287 3.43049 15.2016 3.18209C14.8736 2.93099 14.4202 2.94089 14.1047 3.20369L4.32653 11.3036C4.06608 11.5196 3.94785 11.8651 4.02163 12.1972C4.09452 12.5293 4.34697 12.7912 4.67321 12.8731L10.6459 14.386L7.67243 19.6545C7.46353 20.0253 7.53998 20.4933 7.85555 20.7759C8.02266 20.9244 8.23334 21 8.44401 21C8.63157 21 8.81914 20.9406 8.97736 20.82L19.6444 12.7201C19.9182 12.5113 20.0506 12.163 19.9822 11.8219Z" fill="#BDBDC3"/>
</svg>
