<svg width="20" height="20" viewBox="0 0 20 20" fill="none" xmlns="http://www.w3.org/2000/svg">
<path d="M4.17057 16.667C4.17057 17.5862 4.91807 18.3337 5.83724 18.3337H14.1706C15.0897 18.3337 15.8372 17.5862 15.8372 16.667V6.66699H17.5039V5.00033H15.0039H14.1706V3.33366C14.1706 2.41449 13.4231 1.66699 12.5039 1.66699H7.50391C6.58474 1.66699 5.83724 2.41449 5.83724 3.33366V5.00033H5.00391H2.50391V6.66699H4.17057V16.667ZM7.50391 3.33366H12.5039V5.00033H7.50391V3.33366ZM6.67057 6.66699H13.3372H14.1706L14.1714 16.667H5.83724V6.66699H6.67057Z" fill="#9E9EA7"/>
<path d="M7.50391 8.33301H9.17057V14.9997H7.50391V8.33301ZM10.8372 8.33301H12.5039V14.9997H10.8372V8.33301Z" fill="#9E9EA7"/>
</svg>
