<svg width="20" height="20" viewBox="0 0 20 20" fill="none" xmlns="http://www.w3.org/2000/svg">
<path d="M17.4834 9.83495C17.4201 9.51995 17.1809 9.26911 16.8684 9.19245L11.1518 7.76245L13.2659 2.82828C13.4176 2.47578 13.3084 2.06495 13.0018 1.83495C12.6943 1.60245 12.2693 1.61161 11.9734 1.85495L2.80678 9.35495C2.56262 9.55495 2.45178 9.87495 2.52095 10.1824C2.58928 10.4899 2.82595 10.7324 3.13178 10.8083L8.73095 12.2091L5.94345 17.0874C5.74762 17.4308 5.81928 17.8641 6.11512 18.1258C6.27178 18.2633 6.46928 18.3333 6.66678 18.3333C6.84262 18.3333 7.01845 18.2783 7.16678 18.1666L17.1668 10.6666C17.4234 10.4733 17.5476 10.1508 17.4834 9.83495Z" fill="black"/>
</svg>
