<svg width="20" height="20" viewBox="0 0 20 20" fill="none" xmlns="http://www.w3.org/2000/svg">
<path d="M16.6654 3.33301H4.9987C4.07953 3.33301 3.33203 4.08051 3.33203 4.99967V9.16634H4.9987V6.66634L10.332 10.6663C10.4804 10.7772 10.6562 10.833 10.832 10.833C11.0079 10.833 11.1837 10.7772 11.332 10.6663L16.6654 6.66634V14.1663H9.9987V15.833H16.6654C17.5845 15.833 18.332 15.0855 18.332 14.1663V4.99967C18.332 4.08051 17.5845 3.33301 16.6654 3.33301ZM10.832 8.95801L5.5537 4.99967H16.1104L10.832 8.95801Z" fill="#828A9D"/>
<path d="M1.66797 10H7.5013V11.6667H1.66797V10ZM3.33464 12.5H8.33464V14.1667H3.33464V12.5ZM5.83464 15H9.16797V16.6667H5.83464V15Z" fill="#828A9D"/>
</svg>
