<svg width="20" height="20" viewBox="0 0 20 20" fill="none" xmlns="http://www.w3.org/2000/svg">
<path d="M13.3334 1.66667H6.66669C3.90919 1.66667 1.66669 3.90917 1.66669 6.66667V17.5C1.66669 17.96 2.03919 18.3333 2.50002 18.3333H13.3334C16.0909 18.3333 18.3334 16.0908 18.3334 13.3333V6.66667C18.3334 3.90917 16.0909 1.66667 13.3334 1.66667ZM9.16669 10.4167C9.16669 11.1075 8.60669 11.6667 7.91669 11.6667C7.84502 11.6667 7.77669 11.6575 7.70835 11.6458C7.63919 11.6542 7.57169 11.6667 7.50002 11.6667C6.58002 11.6667 5.83335 10.92 5.83335 10C5.83335 9.08 6.58002 8.33333 7.50002 8.33333C8.42002 8.33333 9.16669 9.08 9.16669 10C9.16669 10.0708 9.15419 10.1392 9.14585 10.2083C9.15669 10.2767 9.16669 10.345 9.16669 10.4167ZM12.5 11.6667C12.4284 11.6667 12.3609 11.6542 12.2917 11.6458C12.2234 11.6575 12.155 11.6667 12.0834 11.6667C11.3934 11.6667 10.8334 11.1075 10.8334 10.4167C10.8334 10.3458 10.8434 10.2767 10.8542 10.2083C10.8459 10.1392 10.8334 10.0717 10.8334 10C10.8334 9.08 11.58 8.33333 12.5 8.33333C13.42 8.33333 14.1667 9.08 14.1667 10C14.1667 10.92 13.42 11.6667 12.5 11.6667Z" fill="#9E9EA7"/>
</svg>
