<svg width="16" height="16" viewBox="0 0 16 16" fill="none" xmlns="http://www.w3.org/2000/svg">
<path d="M3.28413 13.0478C1.85106 11.6147 1.85106 9.29542 3.28413 7.86235L8.23388 2.91261C9.27568 1.8708 10.9633 1.8708 12.0051 2.91261C13.0469 3.95441 13.0469 5.64204 12.0051 6.68384L7.99818 10.6908C7.34764 11.3413 6.29169 11.3413 5.64115 10.6908C4.99061 10.0402 4.99061 8.9843 5.64115 8.33376L9.17669 4.79822L10.1195 5.74103L6.54154 9.31899C6.28226 9.57827 6.75367 10.0497 7.01294 9.7904L11.0623 5.74103C11.5808 5.22249 11.5808 4.37396 11.0623 3.85541C10.5438 3.33687 9.69523 3.33687 9.17669 3.85541L4.22694 8.80516C3.31713 9.71497 3.31713 11.1952 4.22694 12.105C5.13675 13.0148 6.61696 13.0148 7.52677 12.105L12.0051 7.62665L12.9479 8.56946L8.46958 13.0478C7.03651 14.4809 4.7172 14.4809 3.28413 13.0478Z" fill="#9181F3"/>
</svg>
