<svg width="18" height="18" viewBox="0 0 18 18" fill="none" xmlns="http://www.w3.org/2000/svg">
<path d="M15.7345 8.8515C15.6775 8.568 15.4622 8.34225 15.181 8.27325L10.036 6.98625L11.9387 2.5455C12.0752 2.22825 11.977 1.8585 11.701 1.6515C11.4242 1.44225 11.0417 1.4505 10.7755 1.6695L2.5255 8.4195C2.30575 8.5995 2.206 8.8875 2.26825 9.16425C2.32975 9.441 2.54275 9.65925 2.818 9.7275L7.85725 10.9883L5.3485 15.3787C5.17225 15.6877 5.23675 16.0778 5.503 16.3132C5.644 16.437 5.82175 16.5 5.9995 16.5C6.15775 16.5 6.316 16.4505 6.4495 16.35L15.4495 9.6C15.6805 9.426 15.7922 9.13575 15.7345 8.8515Z" fill="#9181F3"/>
</svg>
