<svg width="24" height="24" viewBox="0 0 24 24" fill="none" xmlns="http://www.w3.org/2000/svg">
<path d="M7.24487 14.7816L10.238 10.8914L13.6522 13.5733L16.5812 9.79297" stroke="#292929" stroke-width="1.5" stroke-linecap="round" stroke-linejoin="round"/>
<path d="M19.9954 6.12223C21.057 6.12223 21.9176 5.26163 21.9176 4.20003C21.9176 3.13843 21.057 2.27783 19.9954 2.27783C18.9338 2.27783 18.0732 3.13843 18.0732 4.20003C18.0732 5.26163 18.9338 6.12223 19.9954 6.12223Z" stroke="#292929" stroke-width="1.5" stroke-linecap="round" stroke-linejoin="round"/>
<path d="M14.9245 3.12012H7.6568C4.64536 3.12012 2.77808 5.25284 2.77808 8.26428V16.3467C2.77808 19.3581 4.60874 21.4817 7.6568 21.4817H16.2609C19.2723 21.4817 21.1396 19.3581 21.1396 16.3467V9.30776" stroke="#292929" stroke-width="1.5" stroke-linecap="round" stroke-linejoin="round"/>
</svg>
