<svg width="25" height="25" viewBox="0 0 25 25" fill="none" xmlns="http://www.w3.org/2000/svg">
<path d="M8.00294 12.5317C10.3314 12.5317 12.088 10.6974 12.088 8.26584C12.088 5.83431 10.3314 4 8.00294 4C5.67447 4 3.91789 5.83431 3.91789 8.26584C3.91789 10.6974 5.67447 12.5317 8.00294 12.5317ZM9.1701 13.6871H6.83579C3.61793 13.6871 1 16.4209 1 19.7812V21H2.16716H3.33431H12.6716H13.8387H15.0059V19.7812C15.0059 16.4209 12.388 13.6871 9.1701 13.6871ZM22.352 7.94895L17.3332 13.1801L15.8252 11.6054L14.1749 13.3288L17.3332 16.6245L24 9.67479L22.352 7.94895Z" fill="#9181F3"/>
</svg>
