<svg width="25" height="25" viewBox="0 0 25 25" fill="none" xmlns="http://www.w3.org/2000/svg">
<path d="M22.8616 9.56146C22.7272 9.16771 22.372 8.88958 21.9574 8.85729L16.0189 8.38542L13.4491 2.69688C13.2814 2.32292 12.9095 2.08333 12.5001 2.08333C12.0907 2.08333 11.7189 2.32292 11.5512 2.69583L8.98137 8.38542L3.04283 8.85729C2.63554 8.88958 2.2845 9.15729 2.14595 9.54167C2.00741 9.92604 2.10533 10.3563 2.39804 10.6417L6.78658 14.9198L5.2345 21.6406C5.13866 22.0563 5.30637 22.4885 5.65741 22.7313C5.83658 22.8542 6.04283 22.9167 6.25012 22.9167C6.45116 22.9167 6.65324 22.8583 6.82825 22.7417L12.5001 18.9604L18.172 22.7417C18.5345 22.9833 19.0105 22.974 19.3647 22.7167C19.7168 22.4594 19.872 22.0083 19.7522 21.5896L17.847 14.9229L22.572 10.6708C22.8814 10.3917 22.9949 9.95625 22.8616 9.56146Z" fill="#F4CA58"/>
</svg>
