<svg width="25" height="25" viewBox="0 0 25 25" fill="none" xmlns="http://www.w3.org/2000/svg">
<path d="M4.875 18.1933H5.8125H6.75V22L11.5322 18.1933H12.375H16.125C17.1591 18.1933 18 17.3566 18 16.3278V8.86556C18 7.8367 17.1591 7 16.125 7H4.875C3.84094 7 3 7.8367 3 8.86556V16.3278C3 17.3566 3.84094 18.1933 4.875 18.1933Z" fill="#9181F3"/>
<path d="M20.125 3H19.1875H17.3106H9.8125H8.875C7.84094 3 7 3.82225 7 4.83333H9.8125H16.9244H18.25C19.2841 4.83333 20.125 5.65558 20.125 6.66667V7.96283V11.25V14C21.1591 14 22 13.1778 22 12.1667V11.25V7.58333V5.75V4.83333C22 3.82225 21.1591 3 20.125 3Z" fill="#9181F3"/>
</svg>
