<svg width="19" height="20" viewBox="0 0 19 20" fill="none" xmlns="http://www.w3.org/2000/svg">
<path d="M14.0183 10.2319C13.7087 9.92237 13.2084 9.92237 12.8988 10.2319L11.6369 11.4938C11.0519 11.3197 9.96018 10.9238 9.26827 10.2319C8.57635 9.53999 8.18052 8.44828 8.00635 7.86324L9.26827 6.60132C9.57781 6.29178 9.57781 5.79145 9.26827 5.48191L6.1016 2.31524C5.79206 2.0057 5.29172 2.0057 4.98218 2.31524L2.83518 4.46224C2.53435 4.76307 2.36493 5.17632 2.37127 5.59828C2.38947 6.72562 2.68793 10.6412 5.77385 13.7271C8.85977 16.813 12.7753 17.1107 13.9035 17.1297C13.9074 17.1297 13.9217 17.1297 13.9256 17.1297C14.3436 17.1297 14.7387 16.965 15.0379 16.6658L17.1849 14.5188C17.4945 14.2092 17.4945 13.7089 17.1849 13.3994L14.0183 10.2319ZM13.9177 15.5456C12.9297 15.5289 9.54931 15.2637 6.89327 12.6069C4.22852 9.94216 3.97043 6.54987 3.9546 5.58166L5.54189 3.99437L7.58914 6.04162L6.56552 7.06524C6.37631 7.25366 6.29556 7.52599 6.35018 7.78724C6.36918 7.87828 6.83389 10.0372 8.14806 11.3513C9.46222 12.6655 11.6211 13.1302 11.7121 13.1492C11.9758 13.2054 12.2457 13.1239 12.4341 12.9347L13.4586 11.911L15.5058 13.9583L13.9177 15.5456Z" fill="#828A9D"/>
</svg>
