<svg width="16" height="16" viewBox="0 0 16 16" fill="none" xmlns="http://www.w3.org/2000/svg">
<g clip-path="url(#clip0)">
<path d="M7.99613 15.9999C9.09424 15.9999 10.1253 15.791 11.0894 15.3732C12.0535 14.9554 12.9028 14.3803 13.6375 13.6479C14.3721 12.9154 14.9496 12.0644 15.3697 11.0947C15.7899 10.125 16 9.09339 16 7.99991C16 6.90642 15.7899 5.8774 15.3697 4.91286C14.9496 3.94832 14.3721 3.09726 13.6375 2.35967C12.9028 1.62208 12.0522 1.04439 11.0855 0.626598C10.1189 0.208804 9.08651 -9.15527e-05 7.9884 -9.15527e-05C6.89544 -9.15527e-05 5.86692 0.208804 4.90285 0.626598C3.93877 1.04439 3.08941 1.62208 2.35476 2.35967C1.62011 3.09726 1.04398 3.94833 0.626388 4.91286C0.208796 5.8774 0 6.90642 0 7.99991C0 9.09339 0.208796 10.125 0.626388 11.0947C1.04398 12.0644 1.62139 12.9154 2.35862 13.6479C3.09586 14.3803 3.94651 14.9554 4.91058 15.3732C5.87465 15.791 6.90317 15.9999 7.99613 15.9999ZM7.99613 14.4061C7.10939 14.4061 6.27936 14.241 5.50604 13.9109C4.73272 13.5808 4.05348 13.123 3.46834 12.5376C2.88319 11.9522 2.42693 11.2713 2.09956 10.4951C1.77219 9.71879 1.60851 8.88707 1.60851 7.9999C1.60851 7.11789 1.77219 6.28875 2.09956 5.51247C2.42694 4.7362 2.88191 4.05535 3.46447 3.46992C4.04704 2.88449 4.72498 2.42672 5.4983 2.09661C6.27163 1.7665 7.10166 1.60145 7.9884 1.60145C8.88029 1.60145 9.71161 1.7665 10.4824 2.09661C11.2531 2.42672 11.9323 2.88449 12.52 3.46992C13.1078 4.05535 13.5679 4.7362 13.9004 5.51247C14.233 6.28875 14.3992 7.11789 14.3992 7.9999C14.3992 8.88707 14.2342 9.71879 13.9043 10.4951C13.5743 11.2713 13.1168 11.9522 12.5316 12.5376C11.9465 13.123 11.266 13.5808 10.4901 13.9109C9.71418 14.241 8.88286 14.4061 7.99612 14.4061H7.99613ZM7.98839 11.6672C8.21008 11.6672 8.38794 11.595 8.52198 11.4506C8.65603 11.3062 8.72305 11.1127 8.72305 10.8703V8.73491H10.9889C11.2209 8.73491 11.4103 8.67173 11.5573 8.54536C11.7042 8.41899 11.7777 8.24233 11.7777 8.01538C11.7777 7.78843 11.7055 7.60919 11.5611 7.47766C11.4168 7.34613 11.226 7.28037 10.9889 7.28037H8.72305V5.02892C8.72305 4.78649 8.65603 4.59307 8.52199 4.44865C8.38794 4.30422 8.21008 4.23201 7.9884 4.23201C7.76155 4.23201 7.58369 4.30551 7.45481 4.45252C7.32592 4.59952 7.26148 4.79165 7.26148 5.02892V7.28037H5.00338C4.76107 7.28037 4.56774 7.34613 4.42339 7.47766C4.27904 7.60919 4.20686 7.78843 4.20686 8.01538C4.20686 8.24233 4.28161 8.41899 4.43112 8.54536C4.58063 8.67173 4.77138 8.73491 5.00338 8.73491H7.26147V10.8703C7.26147 11.1024 7.32592 11.2933 7.4548 11.4428C7.58369 11.5924 7.76155 11.6672 7.98839 11.6672H7.98839Z" fill="white"/>
</g>
<defs>
<clipPath id="clip0">
<rect width="16" height="16" fill="white"/>
</clipPath>
</defs>
</svg>
