<svg width="24" height="24" viewBox="0 0 24 24" fill="none" xmlns="http://www.w3.org/2000/svg">
<path d="M12 22C13.366 22 14.652 21.7386 15.8578 21.2157C17.0637 20.6928 18.1275 19.9722 19.049 19.0539C19.9706 18.1356 20.6928 17.0719 21.2157 15.8627C21.7386 14.6536 22 13.366 22 12C22 10.634 21.7386 9.34804 21.2157 8.14216C20.6928 6.93627 19.9706 5.87255 19.049 4.95098C18.1274 4.02941 17.0621 3.30719 15.8529 2.78431C14.6438 2.26144 13.3562 2 11.9902 2C10.6242 2 9.33823 2.26144 8.13235 2.78431C6.92647 3.30719 5.86438 4.02941 4.94608 4.95098C4.02778 5.87255 3.30719 6.93628 2.78431 8.14216C2.26144 9.34804 2 10.634 2 12C2 13.366 2.26144 14.6536 2.78431 15.8627C3.30719 17.0719 4.02941 18.1356 4.95098 19.0539C5.87255 19.9722 6.93628 20.6928 8.14216 21.2157C9.34804 21.7386 10.634 22 12 22ZM11.9804 16.8824C11.7059 16.8824 11.4951 16.7925 11.348 16.6128C11.201 16.433 11.1275 16.1994 11.1275 15.9118V12.8628H7.91176C7.62418 12.8628 7.38889 12.7909 7.20588 12.6471C7.02287 12.5033 6.93137 12.2941 6.93137 12.0196C6.93137 11.7386 7.0196 11.5229 7.19607 11.3726C7.37255 11.2222 7.61111 11.1471 7.91176 11.1471H11.1275V7.90197C11.1275 7.61439 11.201 7.38073 11.348 7.201C11.4951 7.02126 11.7059 6.93139 11.9804 6.93139C12.2549 6.93139 12.469 7.01962 12.6226 7.19609C12.7761 7.37257 12.8529 7.60786 12.8529 7.90198V11.1471H16.0784C16.3791 11.1471 16.616 11.2222 16.7892 11.3726C16.9624 11.5229 17.049 11.7386 17.049 12.0196C17.049 12.2941 16.9592 12.5033 16.7794 12.6471C16.5997 12.7909 16.366 12.8628 16.0784 12.8628H12.8529V15.9118C12.8529 16.2059 12.7761 16.4412 12.6226 16.6177C12.469 16.7941 12.2549 16.8824 11.9804 16.8824V16.8824Z" fill="#6E6D7A"/>
</svg>
