<svg width="16" height="16" viewBox="0 0 16 16" fill="none" xmlns="http://www.w3.org/2000/svg">
<path d="M7.52732 10.1933C7.49865 10.225 7.47193 10.2584 7.44732 10.2933C7.42209 10.3305 7.40191 10.3708 7.38732 10.4133C7.3681 10.4511 7.35462 10.4916 7.34732 10.5333C7.34405 10.5777 7.34405 10.6223 7.34732 10.6667C7.34507 10.7541 7.36333 10.8409 7.40065 10.92C7.4306 11.0027 7.47836 11.0779 7.54058 11.1401C7.60279 11.2023 7.67792 11.25 7.76065 11.28C7.84046 11.3153 7.92674 11.3335 8.01399 11.3335C8.10124 11.3335 8.18752 11.3153 8.26732 11.28C8.35005 11.25 8.42519 11.2023 8.4874 11.1401C8.54961 11.0779 8.59738 11.0027 8.62732 10.92C8.65692 10.8389 8.67051 10.7529 8.66732 10.6667C8.66783 10.5789 8.65101 10.4919 8.61784 10.4107C8.58466 10.3295 8.53578 10.2556 8.47399 10.1933C8.41201 10.1308 8.33828 10.0812 8.25704 10.0474C8.1758 10.0135 8.08866 9.99612 8.00065 9.99612C7.91265 9.99612 7.82551 10.0135 7.74427 10.0474C7.66303 10.0812 7.5893 10.1308 7.52732 10.1933ZM8.00065 1.33332C6.68211 1.33332 5.39318 1.72431 4.29685 2.45686C3.20052 3.1894 2.34604 4.23059 1.84146 5.44876C1.33687 6.66694 1.20485 8.00738 1.46209 9.30059C1.71932 10.5938 2.35426 11.7817 3.28661 12.714C4.21896 13.6464 5.40685 14.2813 6.70005 14.5386C7.99326 14.7958 9.3337 14.6638 10.5519 14.1592C11.7701 13.6546 12.8112 12.8001 13.5438 11.7038C14.2763 10.6075 14.6673 9.31853 14.6673 7.99999C14.6673 7.12451 14.4949 6.2576 14.1599 5.44876C13.8248 4.63993 13.3338 3.905 12.7147 3.28594C12.0956 2.66688 11.3607 2.17582 10.5519 1.84079C9.74304 1.50576 8.87613 1.33332 8.00065 1.33332ZM8.00065 13.3333C6.94582 13.3333 5.91467 13.0205 5.03761 12.4345C4.16055 11.8485 3.47696 11.0155 3.0733 10.041C2.66963 9.06643 2.56401 7.99407 2.7698 6.95951C2.97559 5.92494 3.48354 4.97463 4.22942 4.22875C4.9753 3.48287 5.92561 2.97492 6.96017 2.76913C7.99474 2.56334 9.06709 2.66896 10.0416 3.07263C11.0162 3.4763 11.8491 4.15988 12.4352 5.03695C13.0212 5.91401 13.334 6.94515 13.334 7.99999C13.334 9.41447 12.7721 10.771 11.7719 11.7712C10.7717 12.7714 9.41514 13.3333 8.00065 13.3333ZM8.00065 4.66665C7.64936 4.66643 7.30421 4.75873 6.99993 4.93428C6.69564 5.10983 6.44297 5.36243 6.26732 5.66665C6.21908 5.74253 6.1867 5.82738 6.1721 5.9161C6.15751 6.00482 6.16102 6.09558 6.18241 6.18291C6.2038 6.27024 6.24263 6.35234 6.29658 6.42428C6.35052 6.49621 6.41846 6.55649 6.4963 6.60148C6.57414 6.64648 6.66029 6.67526 6.74954 6.68611C6.8388 6.69695 6.92933 6.68962 7.01568 6.66457C7.10203 6.63952 7.18242 6.59726 7.25202 6.54033C7.32162 6.48341 7.37898 6.41299 7.42065 6.33332C7.47939 6.23158 7.56397 6.14717 7.66582 6.08864C7.76767 6.0301 7.88318 5.99952 8.00065 5.99999C8.17747 5.99999 8.34703 6.07023 8.47206 6.19525C8.59708 6.32027 8.66732 6.48984 8.66732 6.66665C8.66732 6.84346 8.59708 7.01303 8.47206 7.13806C8.34703 7.26308 8.17747 7.33332 8.00065 7.33332C7.82384 7.33332 7.65427 7.40356 7.52925 7.52858C7.40423 7.65361 7.33399 7.82318 7.33399 7.99999V8.66665C7.33399 8.84346 7.40423 9.01303 7.52925 9.13806C7.65427 9.26308 7.82384 9.33332 8.00065 9.33332C8.17747 9.33332 8.34703 9.26308 8.47206 9.13806C8.59708 9.01303 8.66732 8.84346 8.66732 8.66665V8.54665C9.10823 8.38667 9.47889 8.0768 9.7145 7.67123C9.95011 7.26566 10.0357 6.79018 9.95625 6.32791C9.87683 5.86565 9.63745 5.446 9.27998 5.14233C8.92251 4.83866 8.46968 4.67029 8.00065 4.66665Z" fill="#AEADB5"/>
</svg>
