<svg width="14" height="14" viewBox="0 0 14 14" fill="none" xmlns="http://www.w3.org/2000/svg">
<g clip-path="url(#clip0)">
<path d="M6.99661 13.9999C7.95746 13.9999 8.85967 13.8171 9.70323 13.4516C10.5468 13.086 11.29 12.5828 11.9328 11.9419C12.5756 11.301 13.0809 10.5563 13.4485 9.70787C13.8162 8.85938 14 7.95674 14 6.99994C14 6.04313 13.8162 5.14275 13.4485 4.29877C13.0809 3.4548 12.5756 2.71012 11.9328 2.06473C11.29 1.41934 10.5457 0.913862 9.69985 0.548292C8.85403 0.182723 7.9507 -6.10352e-05 6.98985 -6.10352e-05C6.03351 -6.10352e-05 5.13355 0.182723 4.28999 0.548292C3.44643 0.913862 2.70323 1.41934 2.06041 2.06473C1.41759 2.71012 0.913484 3.45481 0.548089 4.29877C0.182696 5.14275 0 6.04313 0 6.99994C0 7.95674 0.182696 8.85938 0.548089 9.70787C0.913482 10.5563 1.41872 11.301 2.0638 11.9419C2.70887 12.5828 3.45319 13.086 4.29676 13.4516C5.14032 13.8171 6.04027 13.9999 6.99661 13.9999ZM6.99661 12.6053C6.22071 12.6053 5.49444 12.4609 4.81778 12.1721C4.14113 11.8832 3.5468 11.4827 3.0348 10.9704C2.52279 10.4582 2.12357 9.86244 1.83712 9.1832C1.55067 8.50396 1.40744 7.77621 1.40744 6.99993C1.40744 6.22817 1.55067 5.50267 1.83712 4.82343C2.12357 4.14419 2.52167 3.54845 3.03141 3.0362C3.54116 2.52395 4.13436 2.1234 4.81102 1.83455C5.48767 1.54571 6.21395 1.40129 6.98985 1.40129C7.77026 1.40129 8.49766 1.54571 9.17206 1.83455C9.84646 2.1234 10.4408 2.52395 10.955 3.0362C11.4693 3.54845 11.8719 4.14419 12.1629 4.82343C12.4538 5.50267 12.5993 6.22817 12.5993 6.99993C12.5993 7.77621 12.455 8.50396 12.1663 9.1832C11.8775 9.86244 11.4772 10.4582 10.9652 10.9704C10.4532 11.4827 9.85773 11.8832 9.17882 12.1721C8.49991 12.4609 7.77251 12.6053 6.99661 12.6053H6.99661ZM6.83421 10.4255C7.05074 10.4255 7.23795 10.3544 7.39584 10.2122C7.55372 10.0701 7.63267 9.89291 7.63267 9.68079C7.63267 9.46415 7.55485 9.28475 7.39922 9.14258C7.24359 9.00042 7.05525 8.92933 6.83421 8.92933C6.61317 8.92933 6.42484 9.00042 6.2692 9.14258C6.11357 9.28475 6.03576 9.46415 6.03576 9.68079C6.03576 9.89291 6.1147 10.0701 6.27259 10.2122C6.43047 10.3544 6.61768 10.4255 6.83421 10.4255H6.83421ZM6.84098 8.34036C7.03044 8.34036 7.18156 8.29297 7.29434 8.19819C7.40711 8.10341 7.46801 7.98833 7.47704 7.85293C7.47704 7.83939 7.47816 7.82473 7.48042 7.80893C7.48267 7.79313 7.4838 7.78072 7.4838 7.77169C7.49282 7.59568 7.55711 7.44223 7.67665 7.31135C7.79619 7.18046 7.96423 7.04507 8.18076 6.90516C8.51457 6.68852 8.78073 6.46286 8.97921 6.22817C9.1777 5.99349 9.27694 5.68207 9.27694 5.29394C9.27694 4.91934 9.17544 4.60003 8.97245 4.33601C8.76945 4.07198 8.50104 3.87002 8.16723 3.73011C7.83341 3.5902 7.46576 3.52025 7.06428 3.52025C6.48236 3.52025 6.00306 3.6342 5.62639 3.86212C5.24971 4.09004 5.00725 4.36422 4.89898 4.68465C4.88094 4.74333 4.86628 4.802 4.855 4.86067C4.84372 4.91934 4.83808 4.98027 4.83808 5.04346C4.83808 5.20142 4.89334 5.33004 5.00387 5.42934C5.11439 5.52863 5.24633 5.57827 5.39971 5.57827C5.60271 5.57827 5.74368 5.53427 5.82262 5.44626C5.90156 5.35825 5.99065 5.25558 6.0899 5.13823C6.20267 4.97124 6.33236 4.84149 6.47897 4.74897C6.62558 4.65645 6.79813 4.61019 6.99661 4.61019C7.26727 4.61019 7.48268 4.67901 7.64282 4.81667C7.80296 4.95432 7.88303 5.13823 7.88303 5.36841C7.88303 5.57602 7.81085 5.74978 7.6665 5.88969C7.52215 6.0296 7.31013 6.19658 7.03045 6.39065C6.78685 6.56215 6.58724 6.74494 6.43161 6.93901C6.27597 7.13307 6.19816 7.3813 6.19816 7.68369C6.19816 7.69271 6.19816 7.704 6.19816 7.71754C6.19816 7.73108 6.19816 7.74462 6.19816 7.75815C6.19816 8.14629 6.41243 8.34036 6.84098 8.34036L6.84098 8.34036Z" fill="#A4A3AB"/>
</g>
<defs>
<clipPath id="clip0">
<rect width="14" height="14" fill="white"/>
</clipPath>
</defs>
</svg>
