<svg width="22" height="20" viewBox="0 0 22 20" fill="none" xmlns="http://www.w3.org/2000/svg">
<path d="M10.0997 0.861528C10.4638 0.108688 11.5362 0.108687 11.9003 0.861527L14.2508 5.72195C14.3966 6.02335 14.6835 6.23181 15.0152 6.2773L20.3641 7.01085C21.1926 7.12447 21.5239 8.14433 20.9205 8.72323L17.0243 12.4607C16.7827 12.6924 16.6731 13.0297 16.7323 13.3593L17.6876 18.673C17.8355 19.4961 16.968 20.1264 16.2309 19.7314L11.4724 17.1808C11.1773 17.0226 10.8227 17.0226 10.5276 17.1808L5.76908 19.7314C5.03202 20.1264 4.16448 19.4961 4.31244 18.673L5.26769 13.3593C5.32693 13.0297 5.21733 12.6924 4.97572 12.4607L1.07955 8.72323C0.476061 8.14433 0.807432 7.12447 1.63593 7.01085L6.98482 6.2773C7.31652 6.23181 7.60344 6.02335 7.7492 5.72195L10.0997 0.861528Z" fill="#F4CA58"/>
</svg>
