<svg width="16" height="16" viewBox="0 0 16 16" fill="none" xmlns="http://www.w3.org/2000/svg">
<path d="M3.28596 13.0473C1.85289 11.6142 1.85289 9.29493 3.28596 7.86186L8.23571 2.91212C9.27751 1.87031 10.9651 1.87031 12.0069 2.91212C13.0487 3.95392 13.0487 5.64155 12.0069 6.68335L8.00001 10.6903C7.34947 11.3408 6.29352 11.3408 5.64298 10.6903C4.99245 10.0398 4.99245 8.98381 5.64298 8.33327L9.17852 4.79774L10.1213 5.74054L6.54337 9.3185C6.28409 9.57778 6.7555 10.0492 7.01477 9.78991L11.0641 5.74054C11.5827 5.222 11.5827 4.37347 11.0641 3.85493C10.5456 3.33638 9.69706 3.33638 9.17852 3.85493L4.22877 8.80467C3.31896 9.71448 3.31896 11.1947 4.22877 12.1045C5.13858 13.0143 6.61879 13.0143 7.5286 12.1045L12.0069 7.62616L12.9498 8.56897L8.47141 13.0473C7.03834 14.4804 4.71903 14.4804 3.28596 13.0473Z" fill="#9181F3"/>
</svg>
