<svg width="16" height="16" viewBox="0 0 16 16" fill="none" xmlns="http://www.w3.org/2000/svg">
<path d="M7.33329 14C8.55564 14 9.6996 13.6659 10.684 13.0884C11.119 12.8332 11.6817 12.8609 12.0383 13.2175L14.4883 15.6675C14.8137 15.9929 15.3412 15.9929 15.6666 15.6675C15.992 15.3421 15.992 14.8146 15.6666 14.4892L13.2167 12.0393C12.8601 11.6826 12.8324 11.1199 13.0877 10.6849C13.6658 9.69996 14 8.55586 14 7.33334C14 3.65751 11.0091 0.666672 7.33329 0.666672C3.65746 0.666672 0.666626 3.65751 0.666626 7.33334C0.666626 11.0092 3.65746 14 7.33329 14ZM7.33329 2.33334C10.0908 2.33334 12.3333 4.57584 12.3333 7.33334C12.3333 10.0908 10.0908 12.3333 7.33329 12.3333C4.57579 12.3333 2.33329 10.0908 2.33329 7.33334C2.33329 4.57584 4.57579 2.33334 7.33329 2.33334Z" fill="#9E9EA7"/>
</svg>
