<svg width="20" height="20" viewBox="0 0 20 20" fill="none" xmlns="http://www.w3.org/2000/svg">
<path d="M10 13.3333C11.8384 13.3333 13.3334 11.8383 13.3334 10C13.3334 8.16167 11.8384 6.66667 10 6.66667C8.16169 6.66667 6.66669 8.16167 6.66669 10C6.66669 11.8383 8.16169 13.3333 10 13.3333ZM10 8.33334C10.9034 8.33334 11.6667 9.09667 11.6667 10C11.6667 10.9033 10.9034 11.6667 10 11.6667C9.09669 11.6667 8.33335 10.9033 8.33335 10C8.33335 9.09667 9.09669 8.33334 10 8.33334Z" fill="#9E9EA7"/>
<path d="M2.37086 13.4467L3.20419 14.8883C3.64669 15.6525 4.71169 15.9392 5.47919 15.4967L5.92002 15.2417C6.40502 15.6225 6.93752 15.935 7.50002 16.1683V16.6667C7.50002 17.5858 8.24752 18.3333 9.16669 18.3333H10.8334C11.7525 18.3333 12.5 17.5858 12.5 16.6667V16.1683C13.0625 15.935 13.595 15.6225 14.08 15.2425L14.5209 15.4975C15.29 15.9392 16.3525 15.6542 16.7967 14.8883L17.6292 13.4475C18.0892 12.6517 17.8159 11.63 17.02 11.1708L16.5992 10.9275C16.6442 10.6183 16.6667 10.3092 16.6667 10C16.6667 9.69083 16.6442 9.38083 16.5992 9.07416L17.02 8.83083C17.8159 8.37083 18.0892 7.35 17.6292 6.55416L16.7967 5.11333C16.3542 4.34666 15.29 4.05916 14.5209 4.50333L14.08 4.75833C13.595 4.3775 13.0625 4.065 12.5 3.83166V3.33333C12.5 2.41416 11.7525 1.66666 10.8334 1.66666H9.16669C8.24752 1.66666 7.50002 2.41416 7.50002 3.33333V3.83166C6.93752 4.065 6.40502 4.3775 5.92002 4.7575L5.47919 4.5025C4.70919 4.06 3.64586 4.34666 3.20336 5.1125L2.37086 6.55333C1.91086 7.34916 2.18419 8.37083 2.98003 8.83L3.40086 9.07333C3.35586 9.38083 3.33336 9.69083 3.33336 10C3.33336 10.3092 3.35586 10.6183 3.40086 10.9258L2.98003 11.1692C2.18419 11.6292 1.91086 12.6508 2.37086 13.4467ZM5.14252 11.1483C5.04836 10.7708 5.00002 10.3842 5.00002 10C5.00002 9.615 5.04836 9.22833 5.14169 8.85166C5.23169 8.49083 5.07252 8.11416 4.75002 7.92833L3.81419 7.38666L4.64586 5.94583L5.60002 6.4975C5.92002 6.68166 6.32252 6.635 6.59002 6.37916C7.15919 5.84 7.84586 5.43666 8.57669 5.21333C8.92752 5.10666 9.16669 4.7825 9.16669 4.41666V3.33333H10.8334V4.41666C10.8334 4.7825 11.0725 5.10666 11.4234 5.21333C12.1542 5.4375 12.8409 5.84 13.41 6.37916C13.6775 6.635 14.0817 6.68083 14.4 6.4975L15.3534 5.94666L16.1867 7.3875L15.25 7.92833C14.9275 8.115 14.7684 8.49166 14.8584 8.85166C14.9517 9.22833 15 9.615 15 10C15 10.3842 14.9517 10.7708 14.8575 11.1483C14.7684 11.5092 14.9275 11.8858 15.25 12.0717L16.1859 12.6125L15.3542 14.0533L14.4 13.5025C14.0809 13.3183 13.6775 13.3642 13.41 13.6208C12.8409 14.16 12.1542 14.5633 11.4234 14.7867C11.0725 14.8933 10.8334 15.2175 10.8334 15.5833L10.835 16.6667H9.16669V15.5833C9.16669 15.2175 8.92752 14.8933 8.57669 14.7867C7.84586 14.5625 7.15919 14.16 6.59002 13.6208C6.43169 13.4692 6.22502 13.3917 6.01669 13.3917C5.87336 13.3917 5.73002 13.4283 5.60002 13.5033L4.64669 14.055L3.81336 12.6142L4.75002 12.0717C5.07252 11.8858 5.23169 11.5092 5.14252 11.1483Z" fill="#9E9EA7"/>
</svg>
