<svg width="22" height="22" viewBox="0 0 22 22" fill="none" xmlns="http://www.w3.org/2000/svg">
<path fill-rule="evenodd" clip-rule="evenodd" d="M17.2936 4.69689C17.6942 4.83714 17.9618 5.21481 17.9618 5.63922V11.8478C17.9618 13.5831 17.3312 15.2395 16.2174 16.5228C15.6573 17.1691 14.9487 17.6723 14.1962 18.0793L10.9347 19.8411L7.66765 18.0784C6.91415 17.6714 6.20465 17.1691 5.64365 16.5219C4.52898 15.2386 3.89648 13.5812 3.89648 11.8441V5.63922C3.89648 5.21481 4.16415 4.83714 4.56473 4.69689L10.5982 2.57664C10.8127 2.50147 11.0465 2.50147 11.2601 2.57664L17.2936 4.69689Z" stroke="#0D0C21" stroke-width="1.5" stroke-linecap="round" stroke-linejoin="round"/>
<path d="M8.54492 10.9246L10.2792 12.6598L13.8524 9.08667" stroke="#0D0C21" stroke-width="1.5" stroke-linecap="round" stroke-linejoin="round"/>
</svg>
