<svg width="24" height="24" viewBox="0 0 24 24" fill="none" xmlns="http://www.w3.org/2000/svg">
<path d="M5.72232 19.8975C5.63952 20.2566 5.78352 20.6301 6.08773 20.8398C6.24253 20.946 6.42074 21 6.59984 21C6.77354 21 6.94815 20.9496 7.09935 20.8488L11.9999 17.5818L16.9005 20.8488C17.2138 21.0576 17.6242 21.0495 17.9311 20.8272C18.2353 20.6049 18.3694 20.2152 18.2659 19.8534L16.6197 14.0934L20.7022 10.4196C20.9695 10.1793 21.0676 9.8022 20.9524 9.462C20.8363 9.1218 20.5294 8.8815 20.1712 8.8536L15.0402 8.445L12.8199 3.5301C12.675 3.207 12.3537 3 11.9999 3C11.6462 3 11.3249 3.207 11.18 3.5292L8.95969 8.445L3.82868 8.8527C3.47588 8.8806 3.17257 9.1119 3.05377 9.444C2.93317 9.7761 3.01957 10.1478 3.27157 10.3944L7.06425 14.0907L5.72232 19.8975ZM11.9999 6.0861L13.8378 10.155L14.367 10.1973C14.3679 10.1973 14.3679 10.1973 14.3679 10.1973L17.9428 10.4808L14.9988 13.1304C14.9979 13.1313 14.9979 13.1313 14.9979 13.1322L14.5812 13.5066L14.7351 14.0439C14.7351 14.0439 14.7351 14.0457 14.7351 14.0466L15.8628 17.9931L11.9999 15.4182V6.0861Z" fill="#9E9EA7"/>
</svg>
