<svg width="70" height="70" viewBox="0 0 70 70" fill="none" xmlns="http://www.w3.org/2000/svg">
<path d="M21.8265 15.3402C18.4886 15.7133 15.8167 18.3477 15.4305 21.6497C14.3931 30.5198 14.3931 39.4804 15.4305 48.3505C15.8167 51.6525 18.4886 54.2868 21.8265 54.6599C30.5089 55.6302 39.4911 55.6302 48.1737 54.6599C51.5115 54.2868 54.1832 51.6525 54.5694 48.3505C55.3149 41.977 55.5249 35.5569 55.1991 29.1572C55.1906 28.992 55.2522 28.8308 55.3694 28.7138L58.3989 25.684C58.7498 25.3333 59.3489 25.5526 59.3862 26.0471C59.9579 33.6447 59.801 41.2837 58.9149 48.8586C58.2881 54.2165 53.9863 58.4124 48.6596 59.008C39.6541 60.0143 30.3459 60.0143 21.3405 59.008C16.0136 58.4124 11.7118 54.2165 11.0852 48.8586C10.0082 39.651 10.0082 30.3492 11.0852 21.1415C11.7118 15.7837 16.0136 11.5876 21.3405 10.9923C30.3459 9.98581 39.6541 9.98581 48.6596 10.9923C50.5356 11.202 52.2847 11.8583 53.7906 12.8548C54.0869 13.0508 54.1164 13.4674 53.8653 13.7187L51.5235 16.0604C51.3319 16.252 51.0346 16.2842 50.7961 16.1562C49.9986 15.729 49.1126 15.4451 48.1737 15.3402C39.4911 14.3698 30.5089 14.3698 21.8265 15.3402Z" fill="#292929"/>
<path d="M60.338 17.5884C61.1923 16.7341 61.1923 15.3491 60.338 14.4948C59.4837 13.6406 58.0988 13.6406 57.2445 14.4948L32.5413 39.1979L25.338 31.9949C24.4838 31.1406 23.0987 31.1406 22.2445 31.9949C21.3902 32.8492 21.3902 34.234 22.2445 35.0883L30.9945 43.8383C31.8488 44.6926 33.2337 44.6926 34.088 43.8383L60.338 17.5884Z" fill="#292929"/>
</svg>
