<svg width="12" height="12" viewBox="0 0 12 12" fill="none" xmlns="http://www.w3.org/2000/svg">
<g clip-path="url(#clip0)">
<path d="M5.9971 11.9999C6.82068 11.9999 7.594 11.8432 8.31706 11.5299C9.04011 11.2165 9.67713 10.7852 10.2281 10.2359C10.7791 9.68657 11.2122 9.04827 11.5273 8.321C11.8424 7.59372 12 6.82003 12 5.99991C12 5.1798 11.8424 4.40804 11.5273 3.68463C11.2122 2.96123 10.7791 2.32293 10.2281 1.76974C9.67713 1.21655 9.03914 0.783279 8.31416 0.469933C7.58917 0.156588 6.81488 -8.39233e-05 5.9913 -8.39233e-05C5.17158 -8.39233e-05 4.40019 0.156588 3.67714 0.469933C2.95408 0.783279 2.31706 1.21655 1.76607 1.76974C1.21508 2.32293 0.782986 2.96123 0.469791 3.68463C0.156597 4.40804 0 5.1798 0 5.99991C0 6.82003 0.156597 7.59372 0.469791 8.321C0.782984 9.04827 1.21604 9.68657 1.76897 10.2359C2.32189 10.7852 2.95988 11.2165 3.68293 11.5299C4.40599 11.8432 5.17738 11.9999 5.9971 11.9999ZM5.9971 10.8046C5.33204 10.8046 4.70952 10.6808 4.12953 10.4332C3.54954 10.1856 3.04011 9.84227 2.60125 9.4032C2.16239 8.96413 1.8202 8.45349 1.57467 7.87128C1.32914 7.28908 1.20638 6.66529 1.20638 5.99991C1.20638 5.3384 1.32914 4.71655 1.57467 4.13434C1.8202 3.55214 2.16143 3.0415 2.59836 2.60242C3.03528 2.16335 3.54374 1.82003 4.12373 1.57244C4.70372 1.32486 5.32624 1.20107 5.9913 1.20107C6.66022 1.20107 7.28371 1.32486 7.86176 1.57244C8.43982 1.82003 8.94924 2.16335 9.39004 2.60242C9.83083 3.0415 10.1759 3.55214 10.4253 4.13434C10.6747 4.71655 10.7994 5.3384 10.7994 5.99991C10.7994 6.66529 10.6757 7.28908 10.4282 7.87128C10.1808 8.45349 9.83759 8.96413 9.39873 9.4032C8.95988 9.84227 8.44948 10.1856 7.86756 10.4332C7.28564 10.6808 6.66215 10.8046 5.99709 10.8046H5.9971ZM5.8579 8.93608C6.04349 8.93608 6.20396 8.87515 6.33929 8.7533C6.47462 8.63144 6.54229 8.4796 6.54229 8.29779C6.54229 8.1121 6.47559 7.95833 6.34219 7.83647C6.20879 7.71461 6.04736 7.65368 5.8579 7.65368C5.66843 7.65368 5.507 7.71461 5.3736 7.83647C5.24021 7.95833 5.17351 8.1121 5.17351 8.29779C5.17351 8.4796 5.24117 8.63144 5.3765 8.7533C5.51183 8.87515 5.6723 8.93608 5.85789 8.93608H5.8579ZM5.8637 7.14885C6.02609 7.14885 6.15563 7.10823 6.25229 7.02699C6.34896 6.94575 6.40115 6.84711 6.40889 6.73105C6.40889 6.71945 6.40985 6.70688 6.41179 6.69334C6.41372 6.6798 6.41469 6.66916 6.41469 6.66142C6.42242 6.51055 6.47752 6.37902 6.57998 6.26684C6.68245 6.15465 6.82648 6.0386 7.01208 5.91867C7.29821 5.73299 7.52634 5.53957 7.69647 5.3384C7.8666 5.13724 7.95166 4.87032 7.95166 4.53763C7.95166 4.21655 7.86466 3.94285 7.69067 3.71655C7.51667 3.49024 7.28661 3.31713 7.00048 3.19721C6.71435 3.07728 6.39922 3.01732 6.0551 3.01732C5.55631 3.01732 5.14548 3.115 4.82262 3.31036C4.49976 3.50572 4.29193 3.74073 4.19913 4.01539C4.18366 4.06568 4.1711 4.11597 4.16143 4.16626C4.15176 4.21655 4.14693 4.26877 4.14693 4.32293C4.14693 4.45833 4.1943 4.56858 4.28903 4.65369C4.38376 4.73879 4.49686 4.78134 4.62832 4.78134C4.80232 4.78134 4.92315 4.74363 4.99082 4.66819C5.05848 4.59276 5.13485 4.50475 5.21991 4.40417C5.31658 4.26103 5.42774 4.14982 5.55341 4.07051C5.67907 3.99121 5.82697 3.95156 5.9971 3.95156C6.22909 3.95156 6.41372 4.01055 6.55099 4.12854C6.68825 4.24653 6.75688 4.40417 6.75688 4.60146C6.75688 4.77941 6.69502 4.92835 6.57129 5.04827C6.44756 5.16819 6.26583 5.31133 6.0261 5.47767C5.8173 5.62467 5.6462 5.78134 5.5128 5.94769C5.37941 6.11403 5.31271 6.3268 5.31271 6.58599C5.31271 6.59372 5.31271 6.60339 5.31271 6.615C5.31271 6.62661 5.31271 6.63821 5.31271 6.64982C5.31271 6.98251 5.49637 7.14885 5.8637 7.14885L5.8637 7.14885Z" fill="#A4A3AB"/>
</g>
<defs>
<clipPath id="clip0">
<rect width="12" height="12" fill="white"/>
</clipPath>
</defs>
</svg>
